HIERARCHY
ROOT Hips
{
 OFFSET 0.000000 0.000000 0.000000
 CHANNELS 6 Xposition Yposition Zposition Yrotation Xrotation Zrotation
 JOINT Chest
 {
  OFFSET 0.000000 9.585900 0.002600
  CHANNELS 3 Yrotation Xrotation Zrotation
  JOINT Chest2
  {
   OFFSET 0.000000 9.601200 -0.005300
   CHANNELS 3 Yrotation Xrotation Zrotation
   JOINT Chest3
   {
    OFFSET 0.000000 9.561800 0.000000
    CHANNELS 3 Yrotation Xrotation Zrotation
    JOINT Chest4
    {
     OFFSET 0.000000 9.552100 0.000000
     CHANNELS 3 Yrotation Xrotation Zrotation
     JOINT Neck
     {
      OFFSET 0.000000 14.453000 0.000000
      CHANNELS 3 Yrotation Xrotation Zrotation
      JOINT Head
      {
       OFFSET 0.000000 8.936500 -0.011300
       CHANNELS 3 Yrotation Xrotation Zrotation
       End Site
       {
        OFFSET 0.000000 17.073600 -0.006000
       }
      }
     }
     JOINT RightCollar
     {
      OFFSET -2.921100 9.558500 0.000000
      CHANNELS 3 Yrotation Xrotation Zrotation
      JOINT RightShoulder
      {
       OFFSET -13.519700 0.000000 0.000000
       CHANNELS 3 Yrotation Xrotation Zrotation
       JOINT RightElbow
       {
        OFFSET 0.000000 -29.696600 0.000000
        CHANNELS 3 Yrotation Xrotation Zrotation
        JOINT RightWrist
        {
         OFFSET 0.000000 -24.004700 0.000000
         CHANNELS 3 Yrotation Xrotation Zrotation
         End Site
         {
          OFFSET 0.000000 -17.728500 0.000000
         }
        }
       }
      }
     }
     JOINT LeftCollar
     {
      OFFSET 2.921100 9.558500 0.000000
      CHANNELS 3 Yrotation Xrotation Zrotation
      JOINT LeftShoulder
      {
       OFFSET 13.519700 0.000000 0.000000
       CHANNELS 3 Yrotation Xrotation Zrotation
       JOINT LeftElbow
       {
        OFFSET 0.000000 -29.696600 0.000000
        CHANNELS 3 Yrotation Xrotation Zrotation
        JOINT LeftWrist
        {
         OFFSET 0.000000 -24.004700 0.000000
         CHANNELS 3 Yrotation Xrotation Zrotation
         End Site
         {
          OFFSET 0.000000 -17.728500 0.000000
         }
        }
       }
      }
     }
    }
   }
  }
 }
 JOINT RightHip
 {
  OFFSET -7.771700 -0.012900 -0.001300
  CHANNELS 3 Yrotation Xrotation Zrotation
  JOINT RightKnee
  {
   OFFSET 0.000000 -40.869800 0.001200
   CHANNELS 3 Yrotation Xrotation Zrotation
   JOINT RightAnkle
   {
    OFFSET 0.000000 -39.717900 0.002100
    CHANNELS 3 Yrotation Xrotation Zrotation
    JOINT RightToe
    {
     OFFSET 0.000000 -4.965400 11.033500
     CHANNELS 3 Yrotation Xrotation Zrotation
     End Site
     {
      OFFSET 0.000000 -1.423100 5.872300
     }
    }
   }
  }
 }
 JOINT LeftHip
 {
  OFFSET 7.771700 -0.012900 -0.001300
  CHANNELS 3 Yrotation Xrotation Zrotation
  JOINT LeftKnee
  {
   OFFSET 0.000000 -40.869800 0.001200
   CHANNELS 3 Yrotation Xrotation Zrotation
   JOINT LeftAnkle
   {
    OFFSET 0.000000 -39.717900 0.002100
    CHANNELS 3 Yrotation Xrotation Zrotation
    JOINT LeftToe
    {
     OFFSET 0.000000 -4.965400 11.033500
     CHANNELS 3 Yrotation Xrotation Zrotation
     End Site
     {
      OFFSET 0.000000 -1.423100 5.872300
     }
    }
   }
  }
 }
}
MOTION
Frames: 9
Frame Time: 0.008333
-125.154312 51.652783 -52.075181 -179.998870 -19.434663 -1.010878 -3.685271 12.471474 -0.097878 -0.269522 0.949931 0.061772 -0.496158 1.690029 0.129737 -3.237314 11.292503 0.535371 -1.151398 15.659205 -2.226612 -0.686193 -9.313291 -2.111974 1.967018 16.720701 10.122147 20.696507 -4.629832 -28.999847 157.273102 -45.230728 170.976077 -2.405357 3.201865 -13.851957 -2.259637 14.860909 -14.497598 -26.949936 0.456550 32.497516 -157.212085 -50.875280 -171.707543 17.360372 9.851189 9.614449 -12.108278 -62.572493 4.532988 -103.186314 81.227412 -111.553133 -4.304789 -12.489519 9.948098 0.336091 -0.836452 0.192174 12.572241 -61.064889 -11.394805 29.235007 85.422569 34.344274 -3.914540 -12.125358 2.435746 0.143453 0.461465 0.083146
-125.162208 51.651456 -52.069808 179.993732 -19.419225 -1.011285 -3.691030 12.481987 -0.087516 -0.271138 0.950688 0.062710 -0.493188 1.685923 0.128721 -3.232148 11.278720 0.532602 -1.159747 15.682434 -2.202996 -0.696491 -9.297764 -2.075305 1.969058 16.722839 10.127494 20.706036 -4.629200 -28.956568 157.422255 -45.308937 170.834077 -2.416267 3.252298 -13.952260 -2.269346 14.894264 -14.476035 -26.911487 0.440561 32.416699 -157.325862 -50.838087 -171.636231 17.373233 9.849330 9.637612 -12.076061 -62.587528 4.524433 -103.133147 81.229606 -111.501789 -4.302107 -12.485740 9.949489 0.322442 -0.830594 0.201906 12.589270 -61.081253 -11.408194 29.264516 85.414419 34.373631 -3.922004 -12.119036 2.437217 0.148445 0.462268 0.084690
-125.170640 51.650409 -52.064767 179.982186 -19.408636 -1.004055 -3.687472 12.484118 -0.086917 -0.278237 0.965254 0.068134 -0.483744 1.665788 0.121657 -3.247939 11.310087 0.553594 -1.160666 15.679047 -2.199460 -0.688958 -9.320267 -2.091662 1.981486 16.704102 10.115733 20.717982 -4.635106 -28.922946 157.551902 -45.386288 170.713008 -2.428043 3.296925 -14.042684 -2.263487 14.875706 -14.488847 -26.888399 0.431231 32.375788 -157.456533 -50.843665 -171.535403 17.385712 9.847590 9.658168 -12.050422 -62.597673 4.515020 -103.079388 81.239821 -111.457031 -4.293637 -12.492371 9.940480 0.305668 -0.820449 0.206222 12.612776 -61.090565 -11.426043 29.293849 85.405379 34.399589 -3.929007 -12.113807 2.434844 0.155514 0.462285 0.083659
-125.177595 51.648493 -52.056693 179.955044 -19.380977 -0.997082 -3.668125 12.469411 -0.079334 -0.285668 0.980347 0.074461 -0.485592 1.668807 0.123749 -3.255179 11.318299 0.566637 -1.160907 15.677686 -2.197611 -0.681801 -9.344407 -2.107333 1.995385 16.701373 10.118175 20.735632 -4.646912 -28.919752 157.667780 -45.461947 170.595646 -2.440575 3.331195 -14.115244 -2.258308 14.892025 -14.480880 -26.867874 0.378839 32.330021 -157.577443 -50.853819 -171.445568 17.352090 9.818818 9.647735 -11.996202 -62.625175 4.507419 -102.957825 81.247835 -111.345015 -4.284003 -12.478379 9.971325 0.284104 -0.820174 0.182991 12.661586 -61.118484 -11.453546 29.312268 85.399403 34.422865 -3.931559 -12.108677 2.431828 0.153861 0.463071 0.086244
-125.184216 51.647193 -52.049735 179.951675 -19.361077 -0.996072 -3.681298 12.495666 -0.058315 -0.287854 0.990728 0.079319 -0.479692 1.643497 0.110790 -3.258555 11.327069 0.579456 -1.166344 15.666825 -2.203084 -0.719190 -9.298168 -2.056853 2.006960 16.678502 10.101595 20.747355 -4.654413 -28.893539 157.766278 -45.539066 170.491848 -2.450101 3.357849 -14.166713 -2.251694 14.909423 -14.472677 -26.828577 0.344509 32.247528 -157.665796 -50.830747 -171.407627 17.381671 9.834067 9.686937 -11.963721 -62.646054 4.491009 -102.913582 81.251251 -111.296322 -4.286462 -12.477840 9.970650 0.285829 -0.826959 0.166969 12.694414 -61.137826 -11.486178 29.286584 85.391179 34.407270 -3.940632 -12.099928 2.428822 0.161649 0.464232 0.090358
-125.189886 51.646710 -52.044482 179.952419 -19.352305 -0.997485 -3.683899 12.493529 -0.053131 -0.291668 1.011716 0.087594 -0.489519 1.679166 0.129567 -3.260691 11.305911 0.579420 -1.165706 15.632903 -2.226059 -0.739511 -9.272030 -2.026340 2.019457 16.651862 10.079425 20.754803 -4.663671 -28.866062 157.858312 -45.611531 170.398888 -2.454729 3.377640 -14.201098 -2.245659 14.888504 -14.488722 -26.776389 0.390883 32.118754 -157.673423 -50.765224 -171.436191 17.398703 9.856417 9.722100 -11.933964 -62.654650 4.471125 -102.876278 81.254321 -111.251988 -4.288617 -12.479083 9.966107 0.287203 -0.827905 0.166176 12.701564 -61.148102 -11.497974 29.271437 85.384910 34.393800 -3.942315 -12.089861 2.428868 0.164474 0.461471 0.088516
-125.194416 51.646981 -52.040705 179.958105 -19.352607 -1.001999 -3.691211 12.519492 -0.040767 -0.294173 1.006444 0.085020 -0.488154 1.674478 0.128175 -3.271636 11.376758 0.617640 -1.173465 15.585185 -2.243632 -0.752573 -9.278195 -2.015114 2.029932 16.580856 10.034080 20.775291 -4.648270 -28.807646 157.892376 -45.659012 170.350093 -2.458190 3.387704 -14.225023 -2.241325 14.824438 -14.520728 -26.746941 0.420117 32.032492 -157.668244 -50.728802 -171.454709 17.399962 9.886479 9.755305 -11.911962 -62.654160 4.452337 -102.859184 81.253063 -111.224247 -4.292140 -12.479539 9.953410 0.292779 -0.833867 0.170268 12.691649 -61.149342 -11.496985 29.209910 85.382045 34.331457 -3.934486 -12.083158 2.429198 0.167078 0.460486 0.086164
-125.197499 51.646670 -52.034639 179.950766 -19.337858 -1.004849 -3.696031 12.551954 -0.016835 -0.283970 0.965999 0.067288 -0.490584 1.683209 0.131506 -3.273660 11.403703 0.632943 -1.195221 15.618666 -2.204610 -0.751751 -9.323360 -2.036601 2.039081 16.549647 10.012356 20.785885 -4.639364 -28.787604 157.965020 -45.723267 170.264490 -2.461996 3.392890 -14.246288 -2.224256 14.876167 -14.488487 -26.750605 0.363762 31.965201 -157.645974 -50.672959 -171.493735 17.411576 9.957625 9.815754 -11.871879 -62.662652 4.437484 -102.751365 81.254059 -111.106444 -4.295662 -12.483684 9.953051 0.287049 -0.826984 0.169158 12.693161 -61.166693 -11.494425 29.119907 85.380000 34.242121 -3.930970 -12.076386 2.422757 0.166560 0.460313 0.088594
-125.201583 51.646886 -52.029651 179.945324 -19.328528 -0.995808 -3.699511 12.564123 -0.013707 -0.281127 0.969879 0.069006 -0.496629 1.701056 0.139055 -3.272124 11.399681 0.633009 -1.201475 15.595855 -2.208995 -0.766927 -9.317997 -2.018578 2.041300 16.513262 9.990962 20.793220 -4.632624 -28.778608 158.044087 -45.792962 170.181882 -2.463741 3.399207 -14.267627 -2.214182 14.882684 -14.480956 -26.732035 0.356339 31.904861 -157.678777 -50.754135 -171.450518 17.393051 9.910620 9.793955 -11.839073 -62.671421 4.416579 -102.688482 81.254281 -111.044754 -4.296538 -12.485912 9.951230 0.284040 -0.825901 0.167564 12.709557 -61.174908 -11.511923 29.077962 85.372989 34.198747 -3.933185 -12.066239 2.419695 0.169403 0.455689 0.086560
